<svg width="36" height="36" viewBox="0 0 36 36" fill="none" xmlns="http://www.w3.org/2000/svg">
<circle cx="18" cy="18" r="18" fill="black"/>
<g clip-path="url(#clip0)">
<path d="M23.7944 20.1056C24.3825 20.9877 25.0686 21.4777 25.8527 21.7718C25.5586 22.752 24.9706 23.8302 24.2845 25.0064C23.2063 26.6727 22.1285 27.5548 21.05 27.5548C20.6579 27.5548 20.0698 27.4567 19.2857 27.1627C18.6655 26.901 17.9986 26.7676 17.3254 26.7707C16.7145 26.7593 16.1097 26.8937 15.5611 27.1627C14.8747 27.4567 14.2869 27.5548 13.8948 27.5548C12.6206 27.5548 11.3465 26.4766 10.0722 24.2222C8.79798 22.0662 8.20996 19.9095 8.20996 17.7531C8.20996 15.7929 8.70003 14.2243 9.68018 12.9504C10.6603 11.6764 11.8362 11.088 13.3067 11.088C13.6688 11.0761 14.0309 11.1091 14.3849 11.1861C14.777 11.2841 15.1691 11.3821 15.5611 11.6761C15.8984 11.8844 16.2607 12.049 16.6393 12.1662C16.8602 12.2404 17.0928 12.2736 17.3257 12.2642C17.6227 12.2705 17.9192 12.2376 18.2076 12.1663C18.5996 12.0683 18.9917 11.8723 19.3838 11.6762C19.7327 11.4907 20.0927 11.327 20.4619 11.1861C20.7559 11.0881 21.05 10.9897 21.344 10.9897C22.3136 10.9937 23.2632 11.265 24.0885 11.7739C24.4805 12.068 24.9706 12.4603 25.3627 13.0481C24.6766 13.6364 24.1864 14.1266 23.8924 14.5185C23.3124 15.2782 23.0021 16.2093 23.0102 17.165C22.9123 18.3413 23.206 19.3215 23.7944 20.1056ZM19.4818 10.0099C19.0811 10.4094 18.6175 10.7404 18.1095 10.9897C18.0115 11.0878 17.9135 11.0878 17.4231 11.1858H16.7367C16.7367 9.91156 17.1288 8.83338 17.7169 7.85324C18.4036 6.97148 19.3838 6.28543 20.952 5.99133C21.016 6.07598 21.0504 6.17931 21.05 6.28543V6.4814C21.0413 7.09014 20.9079 7.69062 20.6579 8.24572C20.3826 8.90377 19.9833 9.50272 19.4818 10.0099Z" fill="white"/>
</g>
<defs>
<clipPath id="clip0">
<rect width="22" height="22" fill="white" transform="translate(6 6)"/>
</clipPath>
</defs>
</svg>
