<svg width="36" height="36" viewBox="0 0 36 36" fill="none" xmlns="http://www.w3.org/2000/svg">
<circle cx="18" cy="18" r="18" fill="#B40000"/>
<path d="M18.4988 28.9606L15.5725 13.2195C12.7832 13.2195 11.9034 13.5121 11.7763 14.7061C11.7763 14.7061 9.90519 14.0389 8.96145 12.6836C12.6442 11.0514 16.3445 10.9778 16.3445 10.9778L18.5037 13.4931L18.4988 13.4928L20.658 10.9774C20.658 10.9774 24.3584 11.0511 28.0406 12.6833C27.0977 14.0385 25.2258 14.7058 25.2258 14.7058C25.0981 13.5117 24.2193 13.2191 21.4487 13.2172L18.4988 28.9606Z" fill="white"/>
<path d="M18.5 10.2513C15.523 10.2295 12.1155 10.6917 8.6273 12.1458C8.16108 11.3432 8.04123 10.9885 8.04123 10.9885C11.8544 9.54562 15.4253 9.05182 18.5004 9.03943C21.5753 9.05182 25.1461 9.5457 28.9587 10.9885C28.9587 10.9885 28.7887 11.4254 28.3731 12.1458C24.8855 10.6917 21.4775 10.2295 18.5004 10.2513H18.5Z" fill="white"/>
</svg>
