<svg width="20" height="20" viewBox="0 0 20 20" fill="none" xmlns="http://www.w3.org/2000/svg">
<path d="M15.8333 2.5H4.16667C3.25 2.5 2.5 3.25 2.5 4.16667V15.8333C2.5 16.75 3.25 17.5 4.16667 17.5H15.8333C16.75 17.5 17.5 16.75 17.5 15.8333V4.16667C17.5 3.25 16.75 2.5 15.8333 2.5ZM15.8333 15.8333H4.16667V4.16667H15.8333V15.8333Z" fill="#1FC7D4"/>
<path d="M5.20833 6.43333H9.375V7.68333H5.20833V6.43333Z" fill="#1FC7D4"/>
<path d="M10.8333 13.125H15V14.375H10.8333V13.125Z" fill="#1FC7D4"/>
<path d="M10.8333 11.0417H15V12.2917H10.8333V11.0417Z" fill="#1FC7D4"/>
<path d="M6.66667 15H7.91667V13.3333H9.58333V12.0833H7.91667V10.4167H6.66667V12.0833H5V13.3333H6.66667V15Z" fill="#1FC7D4"/>
<path d="M11.7417 9.125L12.9167 7.95L14.0917 9.125L14.975 8.24167L13.8 7.05833L14.975 5.88333L14.0917 5L12.9167 6.175L11.7417 5L10.8583 5.88333L12.0333 7.05833L10.8583 8.24167L11.7417 9.125Z" fill="#1FC7D4"/>
</svg>
