<svg fill="none" height="174" viewBox="0 0 156 174" width="156" xmlns="http://www.w3.org/2000/svg"><g fill="#a2ddf9"><path d="m112.77 173.101c-2.72 0-4.343-3.014-2.94-5.318l20.531-33.947c.614-.975 1.535-1.551 2.544-1.64v-.044h-5.44-4.737c-1.097 0-1.974.532-2.545 1.33-.087.044-.131.133-.175.221l-20.9253 34.611c-1.2722 2.128.2193 4.831 2.6763 4.831h11.011z"/><path d="m130.361 44.2724-20.53-33.9465c-1.404-2.34878.263-5.318 2.939-5.318h41.06c.571 0 1.053.13295 1.536.35454.307-1.01929-1.404-4.830519-5.221-4.830519-3.816 0-47.553 0-51.2376 0-1.0967 0-3.9043 2.481729-1.7547 5.982749 2.5882 4.60893 22.7673 37.75773 22.7673 37.75773s1.141 1.6841 3.422 1.6841h9.783c-1.097-.0887-2.15-.6648-2.764-1.6841z"/><path d="m14.0699 167.074c1.009-1.02 47.3337-78.1305 47.3337-78.1305l-47.9917-78.662s-1.7109-4.38739 3.2024-5.53962h41.5869c.1316 0 .3071 0 .4387.04432l-1.2722-2.03857s-1.1844-2.74763-3.1146-2.74763c-1.9741 0-50.66766 0-50.66766 0-5.04483 1.19655-3.290102 5.67253-3.290102 5.67253l50.667662 83.53687s-46.32472 76.5796-47.37756 77.6426c-.65802 1.197-1.79859 6.204 2.0618 6.204h9.95806c-3.2024-.354-2.1495-4.874-1.5354-5.982z"/></g></svg>