<svg width="108" height="20" viewBox="0 0 108 20" fill="none" xmlns="http://www.w3.org/2000/svg">
<g clip-path="url(#clip0)">
<path d="M15.5391 16.0515C15.4 16.0515 15.3106 15.8985 15.3851 15.7751L16.4581 14.0326C16.4879 13.9833 16.5376 13.9537 16.5922 13.9487H16.3091H16.0607C16.006 13.9487 15.9564 13.9783 15.9265 14.0178C15.9216 14.0228 15.9216 14.0228 15.9166 14.0277L14.8237 15.8047C14.7591 15.9133 14.8337 16.0515 14.9628 16.0515H15.5391Z" fill="#A2DDF9"/>
<path d="M16.4582 9.43713L15.3852 7.69465C15.3106 7.57619 15.4001 7.41823 15.5392 7.41823H17.6802C17.71 7.41823 17.7349 7.42316 17.7597 7.43797C17.7746 7.38367 17.6852 7.19116 17.4865 7.19116C17.2878 7.19116 15.0076 7.19116 14.8139 7.19116C14.7592 7.19116 14.6102 7.3195 14.7195 7.49721C14.8536 7.73414 15.9068 9.43713 15.9068 9.43713C15.9068 9.43713 15.9664 9.52104 16.0856 9.52104C16.18 9.52104 16.5277 9.52104 16.5973 9.52104C16.5426 9.52104 16.488 9.49143 16.4582 9.43713Z" fill="#A2DDF9"/>
<path d="M10.3877 15.7407C10.4423 15.6864 12.8566 11.7325 12.8566 11.7325L10.3529 7.69468C10.3529 7.69468 10.2635 7.46761 10.5168 7.40838C10.5168 7.40838 12.5883 7.40838 12.6877 7.40838C12.6976 7.40838 12.7026 7.40838 12.7076 7.41331L12.643 7.30965C12.643 7.30965 12.5834 7.1665 12.479 7.1665C12.3747 7.1665 9.83624 7.1665 9.83624 7.1665C9.57295 7.22574 9.66734 7.45774 9.66734 7.45774L12.3101 11.7424C12.3101 11.7424 9.89088 15.6716 9.84121 15.7259C9.80643 15.7851 9.74682 16.0418 9.9505 16.0418C10.0101 16.0418 10.2138 16.0418 10.4671 16.0418C10.3032 16.0319 10.3578 15.7999 10.3877 15.7407Z" fill="#A2DDF9"/>
<path d="M16.4332 14.0327L15.3602 15.7751C15.2857 15.8936 15.3751 16.0466 15.5142 16.0466H17.6552C17.7943 16.0466 17.8838 15.8936 17.8092 15.7751L16.7362 14.0327C16.6716 13.9191 16.5027 13.9191 16.4332 14.0327Z" fill="#181032"/>
<path d="M16.7411 9.4273L17.8141 7.68482C17.8886 7.56635 17.7992 7.41333 17.6601 7.41333H15.5191C15.38 7.41333 15.2906 7.56635 15.3651 7.68482L16.4381 9.4273C16.5027 9.54083 16.6716 9.54083 16.7411 9.4273Z" fill="#181032"/>
<path d="M10.5166 7.41406C10.5166 7.41406 12.5882 7.41406 12.6875 7.41406C12.7869 7.41406 12.8465 7.55228 12.8465 7.55228L15.4446 11.7332C15.4446 11.7332 12.8564 15.9537 12.8266 15.9833C12.7968 16.0129 12.8067 16.0623 12.6875 16.0573C12.5633 16.0623 10.6905 16.0573 10.4918 16.0573C10.2931 16.0573 10.3527 15.8056 10.3875 15.7464C10.4421 15.6921 12.8564 11.7382 12.8564 11.7382L10.3527 7.70036C10.3527 7.69543 10.2633 7.4733 10.5166 7.41406Z" fill="#181032"/>
<path d="M7.98828 3.75562V6.01146H2.79707V8.95835H6.77617V11.1254H2.79707V14.1315H7.98828V16.3873H-0.158691V3.75562H7.98828Z" fill="#A2DDF9"/>
<path d="M23.0999 7.26025C23.7805 7.26025 24.4064 7.36885 24.9678 7.58111C25.5291 7.79336 26.011 8.09941 26.4134 8.49924C26.8157 8.89907 27.1287 9.38282 27.3522 9.95048C27.5758 10.5181 27.6851 11.1598 27.6851 11.8707C27.6851 12.5864 27.5758 13.2331 27.3522 13.8106C27.1287 14.3881 26.8157 14.8719 26.4134 15.2766C26.011 15.6765 25.5291 15.9874 24.9678 16.2046C24.4064 16.4218 23.7855 16.5304 23.0999 16.5304C22.4094 16.5304 21.7835 16.4218 21.2221 16.2046C20.6558 15.9874 20.169 15.6765 19.7616 15.2766C19.3543 14.8768 19.0364 14.3881 18.8128 13.8106C18.5893 13.238 18.48 12.5913 18.48 11.8707C18.48 11.1598 18.5893 10.5181 18.8128 9.95048C19.0364 9.38282 19.3493 8.89907 19.7616 8.49924C20.169 8.09941 20.6558 7.79336 21.2221 7.58111C21.7835 7.36391 22.4094 7.26025 23.0999 7.26025ZM23.0999 14.5313C23.7209 14.5313 24.1729 14.3141 24.466 13.8748C24.7591 13.4404 24.9032 12.774 24.9032 11.8855C24.9032 10.997 24.7591 10.3355 24.466 9.90112C24.1729 9.46673 23.7159 9.24954 23.0999 9.24954C22.4641 9.24954 21.9971 9.46673 21.704 9.90112C21.4109 10.3355 21.2619 10.997 21.2619 11.8855C21.2619 12.774 21.4109 13.4404 21.704 13.8748C21.9971 14.3141 22.4641 14.5313 23.0999 14.5313Z" fill="#A2DDF9"/>
<path d="M29.1606 16.3873V7.39852H30.8298C30.9987 7.39852 31.1378 7.43801 31.252 7.51205C31.3663 7.5861 31.4458 7.69963 31.4905 7.84771L31.6445 8.36601C31.8183 8.20312 31.9972 8.05503 32.181 7.91682C32.3648 7.77861 32.5635 7.66014 32.7771 7.56635C32.9907 7.47256 33.2192 7.39358 33.4626 7.33929C33.711 7.28499 33.9743 7.25537 34.2674 7.25537C34.7592 7.25537 35.1964 7.33929 35.5739 7.51205C35.9514 7.68482 36.2743 7.92176 36.5327 8.22287C36.791 8.52397 36.9897 8.88925 37.1238 9.30883C37.2579 9.7284 37.3225 10.1825 37.3225 10.6762V16.3873H34.63V10.6762C34.63 10.2368 34.5307 9.89623 34.327 9.64943C34.1233 9.40262 33.8253 9.27921 33.4328 9.27921C33.1397 9.27921 32.8616 9.34338 32.5983 9.47172C32.34 9.60006 32.0866 9.76789 31.8531 9.98509V16.3923H29.1606V16.3873Z" fill="#A2DDF9"/>
<path d="M42.3247 4.9353C42.3247 5.14755 42.28 5.34994 42.1955 5.53751C42.1111 5.72509 41.9919 5.88798 41.8379 6.03113C41.6888 6.17428 41.51 6.28781 41.3113 6.36679C41.1126 6.45071 40.899 6.4902 40.6754 6.4902C40.4569 6.4902 40.2482 6.45071 40.0594 6.36679C39.8707 6.28288 39.6968 6.16934 39.5527 6.03113C39.4037 5.88798 39.2895 5.72509 39.205 5.53751C39.1206 5.34994 39.0808 5.14755 39.0808 4.9353C39.0808 4.7181 39.1206 4.51078 39.205 4.31827C39.2895 4.12576 39.4037 3.95793 39.5527 3.81478C39.7018 3.67163 39.8707 3.5581 40.0594 3.47912C40.2482 3.40014 40.4569 3.35571 40.6754 3.35571C40.899 3.35571 41.1126 3.3952 41.3113 3.47912C41.51 3.5581 41.6839 3.67163 41.8379 3.81478C41.9869 3.95793 42.1061 4.12576 42.1955 4.31827C42.28 4.51078 42.3247 4.7181 42.3247 4.9353ZM42.0117 7.39846V16.3873H39.3193V7.39846H42.0117Z" fill="#A2DDF9"/>
<path d="M46.7015 7.39844V13.1047C46.7015 13.5489 46.8009 13.8945 47.0045 14.1363C47.2082 14.3782 47.5063 14.5016 47.8987 14.5016C48.1918 14.5016 48.47 14.4424 48.7283 14.319C48.9866 14.1956 49.235 14.0277 49.4784 13.8056V7.39844H52.1709V16.3873H50.5018C50.164 16.3873 49.9454 16.2392 49.8411 15.9381L49.6771 15.4198C49.5033 15.5876 49.3244 15.7406 49.1406 15.8739C48.9568 16.0121 48.7581 16.1256 48.5445 16.2194C48.3309 16.3132 48.1074 16.3922 47.8639 16.4465C47.6205 16.5008 47.3523 16.5304 47.0642 16.5304C46.5724 16.5304 46.1352 16.4465 45.7577 16.2737C45.3801 16.101 45.0572 15.864 44.7989 15.558C44.5406 15.2519 44.3419 14.8916 44.2077 14.472C44.0736 14.0574 44.009 13.5983 44.009 13.1047V7.39844H46.7015Z" fill="#A2DDF9"/>
<path d="M54.2522 16.3874V7.39857H55.9213C56.0902 7.39857 56.2293 7.43806 56.3436 7.51211C56.4578 7.58615 56.5373 7.69968 56.582 7.84777L56.7311 8.33152C56.8801 8.17356 57.0391 8.03041 57.198 7.90207C57.362 7.77373 57.5358 7.66019 57.7246 7.5664C57.9134 7.47262 58.117 7.39364 58.3307 7.33934C58.5492 7.28504 58.7877 7.25542 59.046 7.25542C59.5924 7.25542 60.0395 7.39364 60.3972 7.675C60.7549 7.95636 61.0231 8.33152 61.2069 8.79552C61.356 8.51909 61.5398 8.28215 61.7584 8.08471C61.9769 7.88726 62.2104 7.7293 62.4638 7.60589C62.7171 7.48249 62.9804 7.39364 63.2636 7.33934C63.5467 7.28011 63.8249 7.25049 64.1031 7.25049C64.6197 7.25049 65.0768 7.32947 65.4742 7.48249C65.8716 7.63551 66.2094 7.85764 66.4776 8.14888C66.7459 8.44011 66.9496 8.80045 67.0887 9.22497C67.2278 9.64948 67.2973 10.1332 67.2973 10.6663V16.3775H64.6048V10.6762C64.6048 9.7482 64.2074 9.27926 63.4076 9.27926C63.045 9.27926 62.7419 9.39773 62.4985 9.63961C62.2601 9.88148 62.1359 10.227 62.1359 10.6762V16.3874H59.4434V10.6762C59.4434 10.1628 59.3441 9.8025 59.1404 9.59024C58.9367 9.38292 58.6386 9.27926 58.2462 9.27926C58.0028 9.27926 57.7743 9.33356 57.5557 9.44216C57.3371 9.55076 57.1334 9.69884 56.9447 9.88642V16.3874H54.2522Z" fill="#A2DDF9"/>
<path d="M84.0383 10.069C84.0383 10.9822 83.8793 11.8263 83.5664 12.5963C83.2484 13.3664 82.8063 14.0377 82.235 14.6004C81.6638 15.1632 80.9733 15.6025 80.1635 15.9184C79.3538 16.2343 78.4596 16.3923 77.476 16.3923H72.563V3.75562H77.476C78.4596 3.75562 79.3538 3.91357 80.1635 4.23443C80.9733 4.55034 81.6638 4.98966 82.235 5.55239C82.8063 6.11512 83.2534 6.7815 83.5664 7.55155C83.8793 8.3216 84.0383 9.16075 84.0383 10.069ZM81.0329 10.069C81.0329 9.44705 80.9534 8.87939 80.7894 8.38083C80.6255 7.87734 80.392 7.45283 80.089 7.10236C79.786 6.75188 79.4134 6.48533 78.9713 6.29776C78.5292 6.11018 78.0324 6.01639 77.471 6.01639H75.5088V14.1414H77.471C78.0324 14.1414 78.5341 14.0476 78.9713 13.86C79.4134 13.6724 79.781 13.4059 80.089 13.0554C80.392 12.7049 80.6255 12.2804 80.7894 11.7769C80.9534 11.2636 81.0329 10.6959 81.0329 10.069Z" fill="#A2DDF9"/>
<path d="M93.5864 3.75562V6.01146H88.3952V8.95835H92.3743V11.1254H88.3952V14.1315H93.5864V16.3873H85.4395V3.75562H93.5864Z" fill="#A2DDF9"/>
<path d="M98.37 9.89624L94.4554 3.76055H97.3913C97.5801 3.76055 97.7242 3.78523 97.8136 3.83459C97.903 3.88396 97.9825 3.96787 98.052 4.0814L100.571 8.3364C100.6 8.26236 100.635 8.18832 100.67 8.11921C100.71 8.0501 100.749 7.97606 100.794 7.90202L103 4.12089C103.144 3.87902 103.343 3.75562 103.591 3.75562H106.403L102.434 9.76296L106.487 16.3873H103.551C103.362 16.3873 103.204 16.3429 103.089 16.2491C102.97 16.1553 102.876 16.0467 102.806 15.9184L100.273 11.4956C100.228 11.6239 100.173 11.7325 100.119 11.8263L97.7589 15.9184C97.6894 16.0418 97.595 16.1504 97.4807 16.2442C97.3665 16.338 97.2224 16.3873 97.0486 16.3873H94.3064L98.37 9.89624Z" fill="#A2DDF9"/>
<path d="M8.64413 3.75562V6.01146H3.44795V8.95835H7.42705V11.1254H3.44795V14.1315H8.63916V16.3873H0.492188V3.75562H8.64413Z" fill="#181032"/>
<path d="M23.7508 7.26025C24.4314 7.26025 25.0573 7.36885 25.6186 7.58111C26.18 7.79336 26.6618 8.09941 27.0642 8.49924C27.4666 8.89907 27.7796 9.38282 28.0031 9.95048C28.2267 10.5181 28.3359 11.1598 28.3359 11.8707C28.3359 12.5864 28.2267 13.2331 28.0031 13.8106C27.7796 14.3881 27.4666 14.8719 27.0642 15.2766C26.6618 15.6765 26.18 15.9874 25.6186 16.2046C25.0573 16.4218 24.4363 16.5304 23.7508 16.5304C23.0603 16.5304 22.4344 16.4218 21.873 16.2046C21.3067 15.9874 20.8199 15.6765 20.4125 15.2766C20.0052 14.8768 19.6872 14.3881 19.4637 13.8106C19.2401 13.238 19.1309 12.5913 19.1309 11.8707C19.1309 11.1598 19.2401 10.5181 19.4637 9.95048C19.6872 9.38282 20.0002 8.89907 20.4125 8.49924C20.8199 8.09941 21.3067 7.79336 21.873 7.58111C22.4344 7.36391 23.0603 7.26025 23.7508 7.26025ZM23.7508 14.5313C24.3717 14.5313 24.8238 14.3141 25.1169 13.8748C25.41 13.4404 25.5541 12.774 25.5541 11.8855C25.5541 10.997 25.41 10.3355 25.1169 9.90112C24.8238 9.46673 24.3668 9.24954 23.7508 9.24954C23.1149 9.24954 22.648 9.46673 22.3549 9.90112C22.0618 10.3355 21.9128 10.997 21.9128 11.8855C21.9128 12.774 22.0618 13.4404 22.3549 13.8748C22.648 14.3141 23.1149 14.5313 23.7508 14.5313Z" fill="#181032"/>
<path d="M29.8115 16.3873V7.39852H31.4807C31.6496 7.39852 31.7887 7.43801 31.9029 7.51205C32.0172 7.5861 32.0967 7.69963 32.1414 7.84771L32.2954 8.36601C32.4692 8.20312 32.6481 8.05503 32.8319 7.91682C33.0157 7.77861 33.2144 7.66014 33.428 7.56635C33.6416 7.47256 33.8701 7.39358 34.1135 7.33929C34.3619 7.28499 34.6252 7.25537 34.9183 7.25537C35.4101 7.25537 35.8472 7.33929 36.2248 7.51205C36.6023 7.68482 36.9252 7.92176 37.1835 8.22287C37.4419 8.52397 37.6406 8.88925 37.7747 9.30883C37.9088 9.7284 37.9734 10.1825 37.9734 10.6762V16.3873H35.2809V10.6762C35.2809 10.2368 35.1816 9.89623 34.9779 9.64943C34.7742 9.40262 34.4762 9.27921 34.0837 9.27921C33.7906 9.27921 33.5124 9.34338 33.2492 9.47172C32.9908 9.60006 32.7375 9.76789 32.504 9.98509V16.3923H29.8115V16.3873Z" fill="#181032"/>
<path d="M42.9756 4.9353C42.9756 5.14755 42.9309 5.34994 42.8464 5.53751C42.762 5.72509 42.6427 5.88798 42.4887 6.03113C42.3397 6.17428 42.1609 6.28781 41.9622 6.36679C41.7635 6.45071 41.5499 6.4902 41.3263 6.4902C41.1077 6.4902 40.8991 6.45071 40.7103 6.36679C40.5215 6.28288 40.3477 6.16934 40.2036 6.03113C40.0546 5.88798 39.9403 5.72509 39.8559 5.53751C39.7714 5.34994 39.7317 5.14755 39.7317 4.9353C39.7317 4.7181 39.7714 4.51078 39.8559 4.31827C39.9403 4.12576 40.0546 3.95793 40.2036 3.81478C40.3527 3.67163 40.5215 3.5581 40.7103 3.47912C40.8991 3.40014 41.1077 3.35571 41.3263 3.35571C41.5499 3.35571 41.7635 3.3952 41.9622 3.47912C42.1609 3.5581 42.3347 3.67163 42.4887 3.81478C42.6378 3.95793 42.757 4.12576 42.8464 4.31827C42.9309 4.51078 42.9756 4.7181 42.9756 4.9353ZM42.6626 7.39846V16.3873H39.9701V7.39846H42.6626Z" fill="#181032"/>
<path d="M47.3524 7.39844V13.1047C47.3524 13.5489 47.4517 13.8945 47.6554 14.1363C47.8591 14.3782 48.1571 14.5016 48.5496 14.5016C48.8427 14.5016 49.1209 14.4424 49.3792 14.319C49.6375 14.1956 49.8859 14.0277 50.1293 13.8056V7.39844H52.8218V16.3873H51.1527C50.8149 16.3873 50.5963 16.2392 50.492 15.9381L50.328 15.4198C50.1542 15.5876 49.9753 15.7406 49.7915 15.8739C49.6077 16.0121 49.409 16.1256 49.1954 16.2194C48.9818 16.3132 48.7582 16.3922 48.5148 16.4465C48.2714 16.5008 48.0032 16.5304 47.715 16.5304C47.2232 16.5304 46.7861 16.4465 46.4085 16.2737C46.031 16.101 45.7081 15.864 45.4498 15.558C45.1915 15.2519 44.9927 14.8916 44.8586 14.472C44.7245 14.0574 44.6599 13.5983 44.6599 13.1047V7.39844H47.3524Z" fill="#181032"/>
<path d="M54.908 16.3874V7.39857H56.5771C56.746 7.39857 56.8851 7.43806 56.9994 7.51211C57.1136 7.58615 57.1931 7.69968 57.2378 7.84777L57.3868 8.33152C57.5359 8.17356 57.6948 8.03041 57.8538 7.90207C58.0177 7.77373 58.1916 7.66019 58.3804 7.5664C58.5691 7.47262 58.7728 7.39364 58.9864 7.33934C59.205 7.28504 59.4434 7.25542 59.7018 7.25542C60.2482 7.25542 60.6953 7.39364 61.053 7.675C61.4106 7.95636 61.6789 8.33152 61.8627 8.79552C62.0117 8.51909 62.1955 8.28215 62.4141 8.08471C62.6327 7.88726 62.8662 7.7293 63.1195 7.60589C63.3729 7.48249 63.6362 7.39364 63.9193 7.33934C64.2025 7.28011 64.4807 7.25049 64.7589 7.25049C65.2755 7.25049 65.7325 7.32947 66.1299 7.48249C66.5274 7.63551 66.8651 7.85764 67.1334 8.14888C67.4017 8.44011 67.6053 8.80045 67.7444 9.22497C67.8835 9.64948 67.9531 10.1332 67.9531 10.6663V16.3775H65.2606V10.6762C65.2606 9.7482 64.8632 9.27926 64.0634 9.27926C63.7007 9.27926 63.3977 9.39773 63.1543 9.63961C62.9158 9.88148 62.7917 10.227 62.7917 10.6762V16.3874H60.0992V10.6762C60.0992 10.1628 59.9998 9.8025 59.7962 9.59024C59.5925 9.38292 59.2944 9.27926 58.902 9.27926C58.6586 9.27926 58.43 9.33356 58.2115 9.44216C57.9929 9.55076 57.7892 9.69884 57.6004 9.88642V16.3874H54.908Z" fill="#181032"/>
<path d="M84.6892 10.069C84.6892 10.9822 84.5302 11.8263 84.2173 12.5963C83.8993 13.3664 83.4572 14.0377 82.8859 14.6004C82.3146 15.1632 81.6241 15.6025 80.8144 15.9184C80.0047 16.2343 79.1105 16.3923 78.1269 16.3923H73.2139V3.75562H78.1269C79.1105 3.75562 80.0047 3.91357 80.8144 4.23443C81.6241 4.55034 82.3146 4.98966 82.8859 5.55239C83.4572 6.11512 83.9043 6.7815 84.2173 7.55155C84.5302 8.3216 84.6892 9.16075 84.6892 10.069ZM81.6837 10.069C81.6837 9.44705 81.6043 8.87939 81.4403 8.38083C81.2764 7.87734 81.0429 7.45283 80.7399 7.10236C80.4369 6.75188 80.0643 6.48533 79.6222 6.29776C79.18 6.11018 78.6833 6.01639 78.1219 6.01639H76.1597V14.1414H78.1219C78.6833 14.1414 79.185 14.0476 79.6222 13.86C80.0643 13.6724 80.4319 13.4059 80.7399 13.0554C81.0429 12.7049 81.2764 12.2804 81.4403 11.7769C81.6043 11.2636 81.6837 10.6959 81.6837 10.069Z" fill="#181032"/>
<path d="M94.2423 3.75562V6.01146H89.0461V8.95835H93.0252V11.1254H89.0461V14.1315H94.2373V16.3873H86.0903V3.75562H94.2423Z" fill="#181032"/>
<path d="M99.0258 9.8963L95.1063 3.75567H98.0422C98.231 3.75567 98.375 3.78035 98.4644 3.82971C98.5539 3.87907 98.6333 3.96299 98.7029 4.07652L101.221 8.33152C101.251 8.25748 101.286 8.18344 101.321 8.11433C101.361 8.04522 101.4 7.97118 101.445 7.89714L103.651 4.11601C103.795 3.87414 103.993 3.75073 104.242 3.75073H107.054L103.084 9.75808L107.138 16.3825H104.202C104.013 16.3825 103.854 16.338 103.74 16.2442C103.621 16.1505 103.526 16.0419 103.457 15.9135L100.923 11.4907C100.879 11.619 100.824 11.7276 100.769 11.8214L98.4098 15.9135C98.3403 16.0369 98.2459 16.1455 98.1316 16.2393C98.0174 16.3331 97.8733 16.3825 97.6994 16.3825H94.9573L99.0258 9.8963Z" fill="#181032"/>
</g>
<defs>
<clipPath id="clip0">
<rect width="108" height="20" fill="white"/>
</clipPath>
</defs>
</svg>
