<svg fill="none" height="20" viewBox="0 0 108 20" width="108" xmlns="http://www.w3.org/2000/svg" xmlns:xlink="http://www.w3.org/1999/xlink"><clipPath id="a"><path d="m0 0h107.71v19.2857h-107.71z"/></clipPath><g clip-path="url(#a)"><path d="m15.6979 15.6959c-.1391 0-.2285-.153-.154-.2764l1.073-1.7425c.0298-.0494.0795-.079.1341-.0839h-.2831-.2484c-.0547 0-.1043.0296-.1341.0691-.005.0049-.005.0049-.01.0099l-1.0929 1.777c-.0645.1086.01.2468.1391.2468z" fill="#a2ddf9"/><path d="m16.6169 9.08136-1.073-1.74248c-.0745-.11847.0149-.27643.154-.27643h2.1411c.0298 0 .0546.00494.0795.01975.0149-.0543-.0746-.24681-.2733-.24681s-2.4788 0-2.6726 0c-.0546 0-.2037.12834-.0944.30604.1342.23694 1.1873 1.93993 1.1873 1.93993s.0596.08391.1788.08391h.5117c-.0546 0-.1093-.02962-.1391-.08391z" fill="#a2ddf9"/><path d="m10.5464 15.3849c.0546-.0543 2.4689-4.0082 2.4689-4.0082l-2.5037-4.0378s-.0894-.22706.164-.2863h2.1708c.01 0 .0149 0 .0199.00494l-.0646-.10366s-.0596-.14315-.1639-.14315-2.64281 0-2.64281 0c-.26329.05923-.1689.29124-.1689.29124l2.64281 4.28463s-2.4193 3.9292-2.46894 3.9835c-.03478.0592-.09439.3159.10924.3159h.5167c-.1639-.0099-.1093-.2419-.0795-.3011z" fill="#a2ddf9"/><path d="m16.5919 13.677-1.073 1.7425c-.0745.1185.0149.2715.154.2715h2.141c.1391 0 .2286-.153.154-.2715l-1.073-1.7425c-.0646-.1135-.2335-.1135-.303 0z" fill="#fff"/><path d="m16.8998 9.07152 1.073-1.74247c.0745-.11847-.0149-.27149-.154-.27149h-2.141c-.1391 0-.2286.15302-.154.27149l1.073 1.74247c.0646.11354.2335.11354.303 0z" fill="#fff"/><path d="m10.6754 7.05817h2.1709c.0993 0 .1589.13821.1589.13821l2.5981 4.18092s-2.5881 4.2205-2.6179 4.2501-.0199.079-.1391.074c-.1242.005-1.997 0-2.1957 0s-.1391-.2517-.1044-.3109c.0547-.0543 2.469-4.0082 2.469-4.0082l-2.5037-4.03783c0-.00494-.0895-.22707.1639-.2863z" fill="#fff"/><g fill="#a2ddf9"><path d="m8.14697 3.39984v2.25584h-5.19121v2.94691h3.9791v2.16701h-3.9791v3.0061h5.19121v2.2559h-8.14697v-12.63176z"/><path d="m23.2585 6.90454c.6806 0 1.3065.1086 1.8679.32085.5613.21226 1.0432.5183 1.4456.91814.4024.39983.7153.88358.9389 1.45124.2235.56763.3328 1.20933.3328 1.92013 0 .7158-.1093 1.3624-.3328 1.94-.2236.5775-.5365 1.0613-.9389 1.466-.4024.3999-.8843.7108-1.4456.928-.5614.2172-1.1823.3258-1.8679.3258-.6905 0-1.3164-.1086-1.8777-.3258-.5663-.2172-1.0532-.5281-1.4605-.928-.4074-.3998-.7253-.8885-.9489-1.466-.2235-.5726-.3328-1.2193-.3328-1.94 0-.7108.1093-1.3525.3328-1.92013.2236-.56766.5366-1.05141.9489-1.45124.4073-.39984.8942-.70588 1.4605-.91814.5613-.21719 1.1872-.32085 1.8777-.32085zm0 7.27106c.621 0 1.0731-.2172 1.3662-.6566.293-.4343.4371-1.1007.4371-1.9892 0-.8886-.1441-1.55001-.4371-1.98439-.2931-.43439-.7502-.65158-1.3662-.65158-.6358 0-1.1028.21719-1.3959.65158-.2931.43438-.4421 1.09579-.4421 1.98439 0 .8885.149 1.5549.4421 1.9892.2931.4394.7601.6566 1.3959.6566z"/><path d="m29.3194 16.0316v-8.98885h1.6691c.1689 0 .308.03949.4223.11353.1142.07404.1937.18757.2384.33566l.154.5183c.1739-.16289.3527-.31098.5365-.44919.1838-.13822.3825-.25668.5962-.35047.2136-.09379.4421-.17277.6855-.22707.2484-.0543.5117-.08391.8048-.08391.4918 0 .9289.08391 1.3065.25668.3775.17277.7004.4097.9587.71081s.457.66639.5912 1.08596c.1341.41958.1987.87371.1987 1.36735v5.7112h-2.6925v-5.7112c0-.43934-.0994-.77994-.303-1.02675-.2037-.24681-.5018-.37021-.8942-.37021-.2931 0-.5713.06417-.8346.19251-.2583.12834-.5116.29617-.7451.51336v6.40719h-2.6925z"/><path d="m42.4834 4.57958c0 .21226-.0447.41464-.1291.60222-.0845.18757-.2037.35047-.3577.49362-.149.14315-.3278.25668-.5266.33566-.1987.08391-.4123.1234-.6358.1234-.2186 0-.4272-.03949-.616-.1234-.1888-.08392-.3626-.19745-.5067-.33566-.149-.14315-.2633-.30605-.3477-.49362-.0845-.18758-.1242-.38996-.1242-.60222 0-.21719.0397-.42451.1242-.61702.0844-.19251.1987-.36034.3477-.50349s.3179-.25669.5067-.33567c.1888-.07897.3974-.1234.616-.1234.2235 0 .4371.03949.6358.1234.1988.07898.3726.19252.5266.33567.149.14315.2683.31098.3577.50349.0844.19251.1291.39983.1291.61702zm-.3129 2.46316v8.98886h-2.6925v-8.98886z"/><path d="m46.8601 7.04272v5.70628c0 .4442.0994.7898.3031 1.0316.2036.2419.5017.3653.8941.3653.2931 0 .5713-.0592.8296-.1826.2584-.1234.5068-.2913.7502-.5134v-6.40718h2.6924v8.98878h-1.6691c-.3378 0-.5564-.148-.6607-.4492l-.1639-.5183c-.1739.1679-.3527.3209-.5365.4542-.1838.1382-.3825.2517-.5962.3455-.2136.0938-.4371.1728-.6805.2271s-.5117.0839-.7998.0839c-.4918 0-.929-.0839-1.3065-.2567-.3776-.1728-.7005-.4097-.9588-.7157-.2583-.3061-.457-.6664-.5911-1.086-.1342-.4146-.1987-.8737-.1987-1.3673v-5.70628z"/><path d="m54.4109 16.0316v-8.98886h1.6692c.1689 0 .308.03949.4222.11353.1143.07404.1938.18758.2385.33566l.149.48375c.149-.15796.308-.30111.467-.42945.1639-.12834.3378-.24187.5265-.33566.1888-.09379.3925-.17277.6061-.22707.2186-.05429.457-.08391.7154-.08391.5464 0 .9935.13821 1.3512.41958.3576.28136.6259.65651.8097 1.12051.149-.27642.3328-.51336.5514-.71081s.4521-.35541.7054-.47881c.2534-.12341.5167-.21226.7998-.26656.2832-.05923.5614-.08885.8395-.08885.5167 0 .9737.07898 1.3711.232.3974.15303.7352.37516 1.0035.66639.2682.29124.4719.65158.611 1.07609s.2087.90826.2087 1.44137v5.7112h-2.6925v-5.7013c0-.92803-.3974-1.39697-1.1972-1.39697-.3627 0-.6657.11847-.9091.36034-.2385.24188-.3627.58741-.3627 1.03663v5.7112h-2.6924v-5.7112c0-.51339-.0994-.87373-.3031-1.08599-.2036-.20732-.5017-.31098-.8941-.31098-.2435 0-.472.0543-.6906.16289-.2185.1086-.4222.25669-.611.44426v6.50102z"/><path d="m84.1969 9.71323c0 .91317-.1589 1.75727-.4719 2.52737-.3179.77-.76 1.4413-1.3313 2.0041-.5713.5627-1.2618 1.002-2.0715 1.3179-.8098.3159-1.704.4739-2.6876.4739h-4.913v-12.63666h4.913c.9836 0 1.8778.15796 2.6876.47881.8097.31592 1.5002.75524 2.0715 1.31797.5713.56272 1.0183 1.22911 1.3313 1.99916.313.77004.4719 1.60919.4719 2.51745zm-3.0054 0c0-.62196-.0795-1.18962-.2434-1.68817-.164-.5035-.3974-.92801-.7005-1.27848-.303-.35047-.6756-.61702-1.1177-.8046-.4421-.18757-.9389-.28136-1.5002-.28136h-1.9623v8.12498h1.9623c.5613 0 1.0631-.0938 1.5002-.2814.4421-.1875.8097-.4541 1.1177-.8046.3031-.3504.5365-.775.7005-1.2784.1639-.5134.2434-1.0811.2434-1.70797z"/><path d="m93.745 3.39984v2.25584h-5.1912v2.94691h3.9791v2.16701h-3.9791v3.0061h5.1912v2.2559h-8.147v-12.63176z"/><path d="m98.5286 9.54047-3.9145-6.13569h2.9359c.1887 0 .3328.02468.4222.07404s.1689.13328.2385.24681l2.5183 4.255c.03-.07404.065-.14809.1-.21719.039-.06911.079-.14315.124-.21719l2.205-3.78113c.145-.24187.343-.36528.592-.36528h2.811l-3.969 6.00735 4.054 6.62441h-2.936c-.189 0-.348-.0445-.462-.1383-.119-.0937-.214-.2023-.283-.3307l-2.534-4.4228c-.045.1283-.099.2369-.154.3307l-2.3594 4.0921c-.0696.1234-.164.232-.2782.3258-.1143.0938-.2583.1432-.4322.1432h-2.7422z"/></g><path d="m8.80282 3.39984v2.25584h-5.19618v2.94691h3.9791v2.16701h-3.9791v3.0061h5.19121v2.2559h-8.146971v-12.63176z" fill="#fff"/><path d="m23.9094 6.90454c.6806 0 1.3065.1086 1.8679.32085.5613.21226 1.0432.5183 1.4456.91814.4023.39983.7153.88358.9388 1.45124.2236.56763.3329 1.20933.3329 1.92013 0 .7158-.1093 1.3624-.3329 1.94-.2235.5775-.5365 1.0613-.9388 1.466-.4024.3999-.8843.7108-1.4456.928-.5614.2172-1.1823.3258-1.8679.3258-.6905 0-1.3164-.1086-1.8778-.3258-.5663-.2172-1.0531-.5281-1.4605-.928-.4073-.3998-.7252-.8885-.9488-1.466-.2235-.5726-.3328-1.2193-.3328-1.94 0-.7108.1093-1.3525.3328-1.92013.2236-.56766.5365-1.05141.9488-1.45124.4074-.39984.8942-.70588 1.4605-.91814.5614-.21719 1.1873-.32085 1.8778-.32085zm0 7.27106c.621 0 1.073-.2172 1.3661-.6566.2931-.4343.4372-1.1007.4372-1.9892 0-.8886-.1441-1.55001-.4372-1.98439-.2931-.43439-.7501-.65158-1.3661-.65158-.6358 0-1.1028.21719-1.3959.65158-.2931.43438-.4421 1.09579-.4421 1.98439 0 .8885.149 1.5549.4421 1.9892.2931.4394.7601.6566 1.3959.6566z" fill="#fff"/><path d="m29.9703 16.0316v-8.98885h1.6691c.1689 0 .308.03949.4223.11353.1142.07404.1937.18757.2384.33566l.154.5183c.1739-.16289.3527-.31098.5365-.44919.1838-.13822.3825-.25668.5961-.35047s.4422-.17277.6856-.22707c.2484-.0543.5116-.08391.8047-.08391.4918 0 .929.08391 1.3065.25668.3776.17277.7005.4097.9588.71081s.457.66639.5912 1.08596c.1341.41958.1987.87371.1987 1.36735v5.7112h-2.6925v-5.7112c0-.43934-.0994-.77994-.303-1.02675-.2037-.24681-.5018-.37021-.8942-.37021-.2931 0-.5713.06417-.8346.19251-.2583.12834-.5117.29617-.7451.51336v6.40719h-2.6925z" fill="#fff"/><path d="m43.1343 4.57958c0 .21226-.0447.41464-.1291.60222-.0845.18757-.2037.35047-.3577.49362-.149.14315-.3279.25668-.5266.33566-.1987.08391-.4123.1234-.6358.1234-.2186 0-.4273-.03949-.616-.1234-.1888-.08392-.3627-.19745-.5067-.33566-.1491-.14315-.2633-.30605-.3478-.49362-.0844-.18758-.1242-.38996-.1242-.60222 0-.21719.0398-.42451.1242-.61702.0845-.19251.1987-.36034.3478-.50349.149-.14315.3179-.25669.5067-.33567.1887-.07897.3974-.1234.616-.1234.2235 0 .4371.03949.6358.1234.1987.07898.3726.19252.5266.33567.149.14315.2683.31098.3577.50349.0844.19251.1291.39983.1291.61702zm-.3129 2.46316v8.98886h-2.6925v-8.98886z" fill="#fff"/><path d="m47.511 7.04272v5.70628c0 .4442.0994.7898.303 1.0316.2037.2419.5018.3653.8942.3653.2931 0 .5713-.0592.8296-.1826s.5067-.2913.7501-.5134v-6.40718h2.6925v8.98878h-1.6691c-.3378 0-.5564-.148-.6607-.4492l-.164-.5183c-.1738.1679-.3527.3209-.5365.4542-.1838.1382-.3825.2517-.5961.3455s-.4371.1728-.6805.2271c-.2435.0543-.5117.0839-.7998.0839-.4918 0-.929-.0839-1.3065-.2567-.3776-.1728-.7005-.4097-.9588-.7157-.2583-.3061-.457-.6664-.5912-1.086-.1341-.4146-.1987-.8737-.1987-1.3673v-5.70628z" fill="#fff"/><path d="m55.0667 16.0316v-8.98886h1.6691c.169 0 .308.03949.4223.11353s.1937.18758.2385.33566l.149.48375c.149-.15796.308-.30111.4669-.42945.164-.12834.3378-.24187.5266-.33566s.3925-.17277.6061-.22707c.2186-.05429.457-.08391.7153-.08391.5465 0 .9936.13821 1.3512.41958.3577.28136.6259.65651.8098 1.12051.149-.27642.3328-.51336.5514-.71081.2185-.19745.452-.35541.7054-.47881.2533-.12341.5166-.21226.7998-.26656.2831-.05923.5613-.08885.8395-.08885.5166 0 .9737.07898 1.3711.232.3974.15303.7352.37516 1.0035.66639.2682.29124.4719.65158.611 1.07609s.2086.90826.2086 1.44137v5.7112h-2.6925v-5.7013c0-.92803-.3974-1.39697-1.1972-1.39697-.3626 0-.6656.11847-.909.36034-.2385.24188-.3627.58741-.3627 1.03663v5.7112h-2.6925v-5.7112c0-.51339-.0993-.87373-.303-1.08599-.2037-.20732-.5017-.31098-.8942-.31098-.2434 0-.4719.0543-.6905.16289-.2186.1086-.4222.25669-.611.44426v6.50102z" fill="#fff"/><path d="m84.8478 9.71323c0 .91317-.159 1.75727-.4719 2.52737-.3179.77-.7601 1.4413-1.3313 2.0041-.5713.5627-1.2618 1.002-2.0716 1.3179-.8097.3159-1.7039.4739-2.6875.4739h-4.913v-12.63666h4.913c.9836 0 1.8778.15796 2.6875.47881.8098.31592 1.5003.75524 2.0716 1.31797.5712.56272 1.0183 1.22911 1.3313 1.99916.3129.77004.4719 1.60919.4719 2.51745zm-3.0054 0c0-.62196-.0795-1.18962-.2434-1.68817-.164-.5035-.3975-.92801-.7005-1.27848s-.6756-.61702-1.1177-.8046c-.4421-.18757-.9389-.28136-1.5002-.28136h-1.9623v8.12498h1.9623c.5613 0 1.063-.0938 1.5002-.2814.4421-.1875.8097-.4541 1.1177-.8046.303-.3504.5365-.775.7005-1.2784.1639-.5134.2434-1.0811.2434-1.70797z" fill="#fff"/><path d="m94.4009 3.39984v2.25584h-5.1962v2.94691h3.9791v2.16701h-3.9791v3.0061h5.1912v2.2559h-8.147v-12.63176z" fill="#fff"/><path d="m99.1845 9.54046-3.9195-6.14063h2.9359c.1888 0 .3328.02468.4222.07405.0895.04936.1689.13327.2385.24681l2.5184 4.255c.03-.07405.065-.14809.1-.2172.039-.0691.079-.14315.124-.21719l2.205-3.78112c.144-.24188.343-.36528.592-.36528h2.811l-3.969 6.00735 4.054 6.62435h-2.936c-.189 0-.348-.0444-.462-.1382-.119-.0938-.214-.2024-.283-.3307l-2.534-4.4228c-.045.1283-.099.2369-.154.3307l-2.3595 4.0921c-.0696.1234-.1639.232-.2782.3258s-.2583.1431-.4322.1431h-2.7421z" fill="#fff"/></g></svg>