<svg width="200" height="30" viewBox="0 0 200 30" fill="none" xmlns="http://www.w3.org/2000/svg">
<path d="M19.5417 29.9923C19.0704 29.9923 18.7892 29.4702 19.0324 29.0709L22.5896 23.1891C22.696 23.0202 22.8556 22.9204 23.0305 22.905V22.8973H22.088H21.2671C21.0771 22.8973 20.925 22.9895 20.8262 23.1277C20.811 23.1354 20.8034 23.1507 20.7958 23.1661L17.1702 29.163C16.9498 29.5316 17.2083 30 17.6339 30H19.5417V29.9923Z" fill="#A2DDF9"/>
<path d="M22.3538 23.4502L19.1311 28.7867C18.8118 29.3165 19.1919 29.9923 19.7999 29.9923H26.253C26.8687 29.9923 27.2411 29.3165 26.9219 28.7867L23.6991 23.4502C23.3951 22.9434 22.6654 22.9434 22.3538 23.4502Z" fill="white"/>
<path d="M22.5897 7.67075L19.0325 1.789C18.7893 1.38203 19.0781 0.867572 19.5418 0.867572H26.6561C26.7549 0.867572 26.8385 0.890608 26.9221 0.929C26.9753 0.752394 26.6789 0.092041 26.0176 0.092041C25.3564 0.092041 17.7784 0.092041 17.1399 0.092041C16.9499 0.092041 16.4634 0.522038 16.8359 1.12864C17.2843 1.92721 20.7807 7.67075 20.7807 7.67075C20.7807 7.67075 20.9783 7.96253 21.3735 7.96253C21.6776 7.96253 22.8405 7.96253 23.0685 7.96253C22.8785 7.94717 22.6961 7.84735 22.5897 7.67075Z" fill="#A2DDF9"/>
<path d="M23.6992 7.37145L26.922 2.03487C27.2412 1.50506 26.8612 0.829346 26.2531 0.829346H19.8C19.1844 0.829346 18.8119 1.50506 19.1312 2.03487L22.3539 7.37145C22.6655 7.87823 23.3952 7.87823 23.6992 7.37145Z" fill="white"/>
<path d="M2.44051 28.948C2.61533 28.7714 10.6418 15.4108 10.6418 15.4108L2.3265 1.78142C2.3265 1.78142 2.03007 1.02124 2.88136 0.821602C2.88136 0.821602 9.76009 0.821602 10.0869 0.821602C10.1097 0.821602 10.1401 0.821602 10.1629 0.829281L9.9425 0.476069C9.9425 0.476069 9.73728 0 9.40285 0C9.06081 0 0.623918 0 0.623918 0C-0.250175 0.20732 0.0538573 0.982851 0.0538573 0.982851L8.83279 15.4569C8.83279 15.4569 0.806337 28.7254 0.623918 28.9097C0.509906 29.117 0.312285 29.9846 0.981156 29.9846C1.17878 29.9846 1.84765 29.9846 2.70654 29.9846C2.15168 29.9232 2.3341 29.14 2.44051 28.948Z" fill="#A2DDF9"/>
<path d="M2.87299 0.821533C2.87299 0.821533 9.75172 0.821533 10.0786 0.821533C10.4054 0.821533 10.603 1.28992 10.603 1.28992L19.2299 15.4107C19.2299 15.4107 10.641 29.6544 10.5422 29.7542C10.4434 29.854 10.4738 30.023 10.0862 29.9999C9.66811 30.023 3.45065 29.9999 2.78938 29.9999C2.12811 29.9999 2.33333 29.1553 2.43974 28.9557C2.61456 28.7714 10.641 15.4107 10.641 15.4107L2.32573 1.78135C2.32573 1.78135 2.0217 1.02117 2.87299 0.821533Z" fill="white"/>
<path d="M59.8412 24.3027C59.6284 24.3027 59.4916 24.0646 59.6056 23.8727L61.2473 21.1622C61.2929 21.0854 61.369 21.0393 61.4526 21.0316H61.0193H60.6393C60.5557 21.0316 60.4797 21.0777 60.4341 21.1391C60.4265 21.1468 60.4265 21.1468 60.4189 21.1545L58.7467 23.9187C58.6479 24.0877 58.7619 24.3027 58.9595 24.3027H59.8412Z" fill="#A2DDF9"/>
<path d="M61.2472 14.0134L59.6054 11.3029C59.4914 11.1186 59.6282 10.8729 59.841 10.8729H63.117C63.1626 10.8729 63.2006 10.8805 63.2386 10.9036C63.2614 10.8191 63.1246 10.5197 62.8205 10.5197C62.5165 10.5197 59.0277 10.5197 58.7313 10.5197C58.6477 10.5197 58.4197 10.7193 58.5869 10.9957C58.7921 11.3643 60.4035 14.0134 60.4035 14.0134C60.4035 14.0134 60.4947 14.1439 60.6771 14.1439C60.8215 14.1439 61.3536 14.1439 61.46 14.1439C61.3764 14.1439 61.2928 14.0978 61.2472 14.0134Z" fill="#A2DDF9"/>
<path d="M51.9591 23.8189C52.0427 23.7345 55.7367 17.584 55.7367 17.584L51.9059 11.3029C51.9059 11.3029 51.7691 10.9497 52.1567 10.8576C52.1567 10.8576 55.3262 10.8576 55.4783 10.8576C55.4935 10.8576 55.5011 10.8576 55.5087 10.8652L55.4099 10.704C55.4099 10.704 55.3186 10.4813 55.159 10.4813C54.9994 10.4813 51.1154 10.4813 51.1154 10.4813C50.7126 10.5735 50.857 10.9344 50.857 10.9344L54.9006 17.5993C54.9006 17.5993 51.199 23.7114 51.123 23.7959C51.0698 23.888 50.9786 24.2873 51.2902 24.2873C51.3814 24.2873 51.6931 24.2873 52.0807 24.2873C51.8299 24.272 51.9135 23.9111 51.9591 23.8189Z" fill="#A2DDF9"/>
<path d="M61.2094 21.1621L59.5676 23.8726C59.4536 24.0569 59.5904 24.295 59.8032 24.295H63.0791C63.292 24.295 63.4288 24.0569 63.3148 23.8726L61.673 21.1621C61.5742 20.9855 61.3158 20.9855 61.2094 21.1621Z" fill="white"/>
<path d="M61.6806 13.9981L63.3223 11.2876C63.4364 11.1033 63.2995 10.8652 63.0867 10.8652H59.8108C59.598 10.8652 59.4611 11.1033 59.5751 11.2876L61.2169 13.9981C61.3157 14.1747 61.5742 14.1747 61.6806 13.9981Z" fill="white"/>
<path d="M52.1568 10.8661C52.1568 10.8661 55.3264 10.8661 55.4784 10.8661C55.6304 10.8661 55.7216 11.0811 55.7216 11.0811L59.6968 17.5848C59.6968 17.5848 55.7368 24.1499 55.6912 24.196C55.6456 24.2421 55.6608 24.3189 55.4784 24.3112C55.2884 24.3189 52.4228 24.3112 52.1188 24.3112C51.8148 24.3112 51.906 23.9196 51.9592 23.8274C52.0428 23.743 55.7368 17.5925 55.7368 17.5925L51.906 11.3114C51.906 11.3038 51.7692 10.9582 52.1568 10.8661Z" fill="white"/>
<path d="M48.2878 5.17529V8.68438H40.345V13.2685H46.4332V16.6393H40.345V21.3156H48.2878V24.8246H35.8225V5.17529H48.2878Z" fill="#A2DDF9"/>
<path d="M71.4096 10.6272C72.4509 10.6272 73.4086 10.7961 74.2675 11.1263C75.1264 11.4565 75.8636 11.9325 76.4793 12.5545C77.095 13.1765 77.5738 13.929 77.9159 14.812C78.2579 15.695 78.4251 16.6932 78.4251 17.7989C78.4251 18.9123 78.2579 19.9182 77.9159 20.8166C77.5738 21.715 77.095 22.4675 76.4793 23.0971C75.8636 23.7191 75.1264 24.2028 74.2675 24.5407C73.4086 24.8785 72.4585 25.0475 71.4096 25.0475C70.3531 25.0475 69.3954 24.8785 68.5365 24.5407C67.67 24.2028 66.9251 23.7191 66.3018 23.0971C65.6786 22.4752 65.1921 21.715 64.8501 20.8166C64.508 19.9259 64.3408 18.92 64.3408 17.7989C64.3408 16.6932 64.508 15.695 64.8501 14.812C65.1921 13.929 65.671 13.1765 66.3018 12.5545C66.9251 11.9325 67.67 11.4565 68.5365 11.1263C69.3954 10.7884 70.3531 10.6272 71.4096 10.6272ZM71.4096 21.9377C72.3597 21.9377 73.0513 21.5998 73.4998 20.9164C73.9482 20.2407 74.1687 19.2041 74.1687 17.822C74.1687 16.4398 73.9482 15.4109 73.4998 14.7352C73.0513 14.0595 72.3521 13.7216 71.4096 13.7216C70.4367 13.7216 69.7222 14.0595 69.2737 14.7352C68.8253 15.4109 68.5973 16.4398 68.5973 17.822C68.5973 19.2041 68.8253 20.2407 69.2737 20.9164C69.7222 21.5998 70.4367 21.9377 71.4096 21.9377Z" fill="#A2DDF9"/>
<path d="M80.6824 24.8248V10.8422H83.2362C83.4947 10.8422 83.7075 10.9036 83.8823 11.0188C84.0571 11.134 84.1787 11.3106 84.2471 11.5409L84.4828 12.3472C84.7488 12.0938 85.0224 11.8634 85.3037 11.6484C85.5849 11.4334 85.8889 11.2491 86.2158 11.1033C86.5426 10.9574 86.8922 10.8345 87.2647 10.75C87.6447 10.6656 88.0476 10.6195 88.496 10.6195C89.2485 10.6195 89.9174 10.75 90.495 11.0188C91.0727 11.2875 91.5667 11.6561 91.962 12.1245C92.3572 12.5929 92.6612 13.1611 92.8665 13.8138C93.0717 14.4664 93.1705 15.1729 93.1705 15.9407V24.8248H89.0509V15.9407C89.0509 15.2573 88.8988 14.7275 88.5872 14.3436C88.2756 13.9597 87.8195 13.7677 87.2191 13.7677C86.7706 13.7677 86.345 13.8675 85.9421 14.0672C85.5469 14.2668 85.1592 14.5279 84.802 14.8657V24.8325H80.6824V24.8248Z" fill="#A2DDF9"/>
<path d="M100.825 7.0106C100.825 7.34077 100.756 7.65559 100.627 7.94738C100.498 8.23916 100.315 8.49255 100.08 8.71523C99.8517 8.93791 99.5781 9.11451 99.2741 9.23737C98.9701 9.3679 98.6432 9.42933 98.3012 9.42933C97.9667 9.42933 97.6475 9.3679 97.3587 9.23737C97.0698 9.10683 96.8038 8.93023 96.5834 8.71523C96.3554 8.49255 96.1806 8.23916 96.0513 7.94738C95.9221 7.65559 95.8613 7.34077 95.8613 7.0106C95.8613 6.67274 95.9221 6.35024 96.0513 6.05078C96.1806 5.75132 96.3554 5.49025 96.5834 5.26757C96.8114 5.04489 97.0698 4.86829 97.3587 4.74543C97.6475 4.62257 97.9667 4.55347 98.3012 4.55347C98.6432 4.55347 98.9701 4.61489 99.2741 4.74543C99.5781 4.86829 99.8441 5.04489 100.08 5.26757C100.308 5.49025 100.49 5.75132 100.627 6.05078C100.756 6.35024 100.825 6.67274 100.825 7.0106ZM100.346 10.8422V24.8248H96.2262V10.8422H100.346Z" fill="#A2DDF9"/>
<path d="M107.521 10.8422V19.7185C107.521 20.4096 107.673 20.9471 107.985 21.3234C108.296 21.6996 108.752 21.8916 109.353 21.8916C109.801 21.8916 110.227 21.7994 110.622 21.6075C111.017 21.4155 111.397 21.1544 111.77 20.8089V10.8422H115.889V24.8248H113.336C112.819 24.8248 112.484 24.5944 112.325 24.126L112.074 23.3198C111.808 23.5808 111.534 23.8189 111.253 24.0262C110.972 24.2412 110.668 24.4178 110.341 24.5637C110.014 24.7096 109.672 24.8324 109.3 24.9169C108.927 25.0014 108.517 25.0474 108.076 25.0474C107.323 25.0474 106.655 24.9169 106.077 24.6482C105.499 24.3794 105.005 24.0108 104.61 23.5348C104.215 23.0587 103.911 22.4982 103.705 21.8455C103.5 21.2005 103.401 20.4864 103.401 19.7185V10.8422H107.521Z" fill="#A2DDF9"/>
<path d="M119.074 24.8248V10.8422H121.628C121.887 10.8422 122.099 10.9036 122.274 11.0188C122.449 11.134 122.571 11.3106 122.639 11.5409L122.867 12.2934C123.095 12.0477 123.338 11.825 123.581 11.6254C123.832 11.4257 124.098 11.2491 124.387 11.1032C124.676 10.9574 124.988 10.8345 125.314 10.75C125.649 10.6656 126.014 10.6195 126.409 10.6195C127.245 10.6195 127.929 10.8345 128.476 11.2722C129.024 11.7098 129.434 12.2934 129.715 13.0152C129.943 12.5852 130.225 12.2166 130.559 11.9095C130.893 11.6023 131.251 11.3566 131.638 11.1647C132.026 10.9727 132.429 10.8345 132.862 10.75C133.295 10.6579 133.721 10.6118 134.147 10.6118C134.937 10.6118 135.636 10.7347 136.244 10.9727C136.853 11.2107 137.369 11.5563 137.78 12.0093C138.19 12.4623 138.502 13.0229 138.715 13.6832C138.928 14.3436 139.034 15.0961 139.034 15.9254V24.8094H134.914V15.9407C134.914 14.4972 134.306 13.7677 133.083 13.7677C132.528 13.7677 132.064 13.952 131.692 14.3282C131.327 14.7045 131.137 15.242 131.137 15.9407V24.8248H127.017V15.9407C127.017 15.1421 126.865 14.5816 126.553 14.2514C126.242 13.9289 125.786 13.7677 125.185 13.7677C124.813 13.7677 124.463 13.8522 124.129 14.0211C123.794 14.19 123.483 14.4204 123.194 14.7121V24.8248H119.074Z" fill="#A2DDF9"/>
<path d="M164.649 14.9961C164.649 16.4167 164.405 17.7297 163.927 18.9275C163.44 20.1254 162.764 21.1697 161.89 22.045C161.015 22.9204 159.959 23.6038 158.72 24.0952C157.481 24.5866 156.113 24.8323 154.608 24.8323H147.091V5.17529H154.608C156.113 5.17529 157.481 5.42101 158.72 5.92011C159.959 6.41154 161.015 7.09492 161.89 7.97028C162.764 8.84563 163.448 9.88223 163.927 11.0801C164.405 12.2779 164.649 13.5833 164.649 14.9961ZM160.05 14.9961C160.05 14.0286 159.929 13.1456 159.678 12.3701C159.427 11.5869 159.07 10.9265 158.606 10.3813C158.142 9.83616 157.572 9.42152 156.896 9.12973C156.219 8.83795 155.459 8.69206 154.6 8.69206H151.598V21.3309H154.6C155.459 21.3309 156.227 21.185 156.896 20.8932C157.572 20.6014 158.135 20.1868 158.606 19.6416C159.07 19.0965 159.427 18.4361 159.678 17.6529C159.929 16.8543 160.05 15.9713 160.05 14.9961Z" fill="#A2DDF9"/>
<path d="M179.257 5.17529V8.68438H171.314V13.2685H177.403V16.6393H171.314V21.3156H179.257V24.8246H166.792V5.17529H179.257Z" fill="#A2DDF9"/>
<path d="M186.577 14.7274L180.587 5.18297H185.079C185.368 5.18297 185.589 5.22136 185.726 5.29815C185.862 5.37493 185.984 5.50547 186.09 5.68208L189.944 12.301C189.99 12.1858 190.043 12.0706 190.096 11.9631C190.157 11.8556 190.218 11.7404 190.286 11.6253L193.661 5.7435C193.881 5.36726 194.185 5.17529 194.565 5.17529H198.867L192.794 14.5201L198.997 24.8246H194.504C194.216 24.8246 193.972 24.7555 193.798 24.6096C193.615 24.4638 193.471 24.2948 193.364 24.0952L189.488 17.2152C189.42 17.4149 189.336 17.5838 189.252 17.7297L185.642 24.0952C185.536 24.2871 185.391 24.4561 185.216 24.602C185.041 24.7479 184.821 24.8246 184.555 24.8246H180.359L186.577 14.7274Z" fill="#A2DDF9"/>
<path d="M49.291 5.17529V8.68438H41.3406V13.2685H47.4288V16.6393H41.3406V21.3156H49.2834V24.8246H36.8181V5.17529H49.291Z" fill="white"/>
<path d="M72.4052 10.6272C73.4465 10.6272 74.4042 10.7961 75.2631 11.1263C76.122 11.4565 76.8592 11.9325 77.4749 12.5545C78.0906 13.1765 78.5694 13.929 78.9115 14.812C79.2535 15.695 79.4207 16.6932 79.4207 17.7989C79.4207 18.9123 79.2535 19.9182 78.9115 20.8166C78.5694 21.715 78.0906 22.4675 77.4749 23.0971C76.8592 23.7191 76.122 24.2028 75.2631 24.5407C74.4042 24.8785 73.4541 25.0475 72.4052 25.0475C71.3487 25.0475 70.391 24.8785 69.5321 24.5407C68.6656 24.2028 67.9207 23.7191 67.2974 23.0971C66.6742 22.4752 66.1877 21.715 65.8457 20.8166C65.5036 19.9259 65.3364 18.92 65.3364 17.7989C65.3364 16.6932 65.5036 15.695 65.8457 14.812C66.1877 13.929 66.6666 13.1765 67.2974 12.5545C67.9207 11.9325 68.6656 11.4565 69.5321 11.1263C70.391 10.7884 71.3487 10.6272 72.4052 10.6272ZM72.4052 21.9377C73.3553 21.9377 74.047 21.5998 74.4954 20.9164C74.9438 20.2407 75.1643 19.2041 75.1643 17.822C75.1643 16.4398 74.9438 15.4109 74.4954 14.7352C74.047 14.0595 73.3477 13.7216 72.4052 13.7216C71.4323 13.7216 70.7178 14.0595 70.2693 14.7352C69.8209 15.4109 69.5929 16.4398 69.5929 17.822C69.5929 19.2041 69.8209 20.2407 70.2693 20.9164C70.7178 21.5998 71.4323 21.9377 72.4052 21.9377Z" fill="white"/>
<path d="M81.678 24.8248V10.8422H84.2319C84.4903 10.8422 84.7031 10.9036 84.8779 11.0188C85.0527 11.134 85.1744 11.3106 85.2428 11.5409L85.4784 12.3472C85.7444 12.0938 86.018 11.8634 86.2993 11.6484C86.5805 11.4334 86.8845 11.2491 87.2114 11.1033C87.5382 10.9574 87.8878 10.8345 88.2603 10.75C88.6403 10.6656 89.0432 10.6195 89.4916 10.6195C90.2441 10.6195 90.913 10.75 91.4906 11.0188C92.0683 11.2875 92.5623 11.6561 92.9576 12.1245C93.3528 12.5929 93.6569 13.1611 93.8621 13.8138C94.0673 14.4664 94.1661 15.1729 94.1661 15.9407V24.8248H90.0465V15.9407C90.0465 15.2573 89.8945 14.7275 89.5828 14.3436C89.2712 13.9597 88.8151 13.7677 88.2147 13.7677C87.7662 13.7677 87.3406 13.8675 86.9377 14.0672C86.5425 14.2668 86.1549 14.5279 85.7976 14.8657V24.8325H81.678V24.8248Z" fill="white"/>
<path d="M101.82 7.0106C101.82 7.34077 101.752 7.65559 101.623 7.94738C101.493 8.23916 101.311 8.49255 101.075 8.71523C100.847 8.93791 100.574 9.11451 100.27 9.23737C99.9657 9.3679 99.6388 9.42933 99.2968 9.42933C98.9624 9.42933 98.6431 9.3679 98.3543 9.23737C98.0655 9.10683 97.7994 8.93023 97.579 8.71523C97.351 8.49255 97.1762 8.23916 97.047 7.94738C96.9177 7.65559 96.8569 7.34077 96.8569 7.0106C96.8569 6.67274 96.9177 6.35024 97.047 6.05078C97.1762 5.75132 97.351 5.49025 97.579 5.26757C97.807 5.04489 98.0655 4.86829 98.3543 4.74543C98.6431 4.62257 98.9624 4.55347 99.2968 4.55347C99.6388 4.55347 99.9657 4.61489 100.27 4.74543C100.574 4.86829 100.84 5.04489 101.075 5.26757C101.303 5.49025 101.486 5.75132 101.623 6.05078C101.752 6.35024 101.82 6.67274 101.82 7.0106ZM101.341 10.8422V24.8248H97.2218V10.8422H101.341Z" fill="white"/>
<path d="M108.517 10.8422V19.7185C108.517 20.4096 108.669 20.9471 108.98 21.3234C109.292 21.6996 109.748 21.8916 110.348 21.8916C110.797 21.8916 111.222 21.7994 111.618 21.6075C112.013 21.4155 112.393 21.1544 112.765 20.8089V10.8422H116.885V24.8248H114.331C113.814 24.8248 113.48 24.5944 113.32 24.126L113.069 23.3198C112.803 23.5808 112.53 23.8189 112.249 24.0262C111.967 24.2412 111.663 24.4178 111.336 24.5637C111.01 24.7096 110.668 24.8324 110.295 24.9169C109.923 25.0014 109.512 25.0474 109.071 25.0474C108.319 25.0474 107.65 24.9169 107.072 24.6482C106.495 24.3794 106.001 24.0108 105.605 23.5348C105.21 23.0587 104.906 22.4982 104.701 21.8455C104.496 21.2005 104.397 20.4864 104.397 19.7185V10.8422H108.517Z" fill="white"/>
<path d="M120.077 24.8248V10.8422H122.631C122.89 10.8422 123.103 10.9036 123.277 11.0188C123.452 11.134 123.574 11.3106 123.642 11.5409L123.87 12.2934C124.098 12.0477 124.341 11.825 124.585 11.6254C124.836 11.4257 125.102 11.2491 125.39 11.1032C125.679 10.9574 125.991 10.8345 126.318 10.75C126.652 10.6656 127.017 10.6195 127.412 10.6195C128.248 10.6195 128.932 10.8345 129.48 11.2722C130.027 11.7098 130.437 12.2934 130.719 13.0152C130.947 12.5852 131.228 12.2166 131.562 11.9095C131.897 11.6023 132.254 11.3566 132.642 11.1647C133.029 10.9727 133.432 10.8345 133.865 10.75C134.299 10.6579 134.724 10.6118 135.15 10.6118C135.94 10.6118 136.64 10.7347 137.248 10.9727C137.856 11.2107 138.373 11.5563 138.783 12.0093C139.193 12.4623 139.505 13.0229 139.718 13.6832C139.931 14.3436 140.037 15.0961 140.037 15.9254V24.8094H135.917V15.9407C135.917 14.4972 135.309 13.7677 134.086 13.7677C133.531 13.7677 133.067 13.952 132.695 14.3282C132.33 14.7045 132.14 15.242 132.14 15.9407V24.8248H128.02V15.9407C128.02 15.1421 127.868 14.5816 127.557 14.2514C127.245 13.9289 126.789 13.7677 126.188 13.7677C125.816 13.7677 125.466 13.8522 125.132 14.0211C124.798 14.19 124.486 14.4204 124.197 14.7121V24.8248H120.077Z" fill="white"/>
<path d="M165.644 14.9961C165.644 16.4167 165.401 17.7297 164.922 18.9275C164.436 20.1254 163.759 21.1697 162.885 22.045C162.011 22.9204 160.955 23.6038 159.716 24.0952C158.477 24.5866 157.109 24.8323 155.604 24.8323H148.086V5.17529H155.604C157.109 5.17529 158.477 5.42101 159.716 5.92011C160.955 6.41154 162.011 7.09492 162.885 7.97028C163.759 8.84563 164.443 9.88223 164.922 11.0801C165.401 12.2779 165.644 13.5833 165.644 14.9961ZM161.046 14.9961C161.046 14.0286 160.924 13.1456 160.673 12.3701C160.423 11.5869 160.065 10.9265 159.602 10.3813C159.138 9.83616 158.568 9.42152 157.891 9.12973C157.215 8.83795 156.455 8.69206 155.596 8.69206H152.594V21.3309H155.596C156.455 21.3309 157.223 21.185 157.891 20.8932C158.568 20.6014 159.13 20.1868 159.602 19.6416C160.065 19.0965 160.423 18.4361 160.673 17.6529C160.924 16.8543 161.046 15.9713 161.046 14.9961Z" fill="white"/>
<path d="M180.261 5.17529V8.68438H172.31V13.2685H178.398V16.6393H172.31V21.3156H180.253V24.8246H167.788V5.17529H180.261Z" fill="white"/>
<path d="M187.58 14.7275L181.583 5.1754H186.075C186.364 5.1754 186.584 5.2138 186.721 5.29058C186.858 5.36737 186.98 5.4979 187.086 5.67451L190.94 12.2934C190.985 12.1782 191.038 12.063 191.092 11.9555C191.152 11.848 191.213 11.7329 191.282 11.6177L194.656 5.73594C194.877 5.35969 195.181 5.16772 195.561 5.16772H199.863L193.79 14.5125L199.992 24.8171H195.5C195.211 24.8171 194.968 24.748 194.793 24.6021C194.611 24.4562 194.466 24.2873 194.36 24.0876L190.484 17.2077C190.415 17.4073 190.332 17.5762 190.248 17.7221L186.638 24.0876C186.531 24.2796 186.387 24.4485 186.212 24.5944C186.037 24.7403 185.817 24.8171 185.551 24.8171H181.355L187.58 14.7275Z" fill="white"/>
</svg>
